<?xml version="1.0" encoding="UTF-8"?>
<svg xmlns="http://www.w3.org/2000/svg" version="1.1" viewBox="0 0 500 500">
  <defs>
    <style>
      .cls-1 {
        fill: #151a30;
        stroke: #fff;
        stroke-linecap: round;
        stroke-linejoin: round;
        stroke-width: 11px;
      }

      .cls-2 {
        fill: #f1f2f2;
      }

      .cls-3 {
        display: none;
      }

      .cls-4 {
        fill: #414042;
      }

      .cls-5 {
        fill: #fff;
        font-family: KonkretikaBlackWIP, 'Konkretika Black WIP';
        font-size: 84.47px;
      }
    </style>
  </defs>
  <!-- Generator: Adobe Illustrator 28.6.0, SVG Export Plug-In . SVG Version: 1.2.0 Build 709)  -->
  <g>
    <g id="Layer_1" class="cls-3">
      <rect class="cls-4" width="500" height="500"/>
    </g>
    <g id="Layer_2">
      <path class="cls-1" d="M473.37,246.5c-2.33-4.38-4.73-8.7-7.23-12.93h-.12c-5.77-9.79-11.99-19.2-18.64-28.19-10.89-2.78-20.37-8.1-28.97-12.93-4.03-2.26-7.85-4.41-11.43-6.06-.75-.07-2.15-.09-3.21-.1h-.46s-.04,0-.04,0h-.04c-11.22-.18-20.36-4.77-27.71-8.46-.34-.17-.68-.34-1.02-.51-.19-.06-.44-.14-.64-.21-1.31-.41-3.1-.98-5.16-1.91-1.06-.48-2.1-1.02-3.08-1.6-1.79-1.05-3.33-2.1-4.58-2.95-.69-.47-1.62-1.1-2-1.31-5.83-2.51-9.99-6.48-12.74-9.12-.43-.41-1.02-.98-1.25-1.17-3.89-3.18-7.94-6.39-11.87-9.51-4.84-3.84-9.84-7.8-14.79-11.9-8.09-6.69-15.39-13.82-22.46-20.72-1.34-1.31-2.69-2.62-4.04-3.94-1.51-1.46-3.03-2.91-4.65-4.45-1.54-1.46-3.12-2.97-4.71-4.51-3.41-2.86-12.23-2.86-15.58-2.86-2.02,0-4.07.04-6.24.09-2.21.05-4.5.1-6.8.1h-.4c-.53.07-1.75.35-2.66.57-2.61.61-5.87,1.38-9.73,1.57h-.23s-.23.02-.23.02c-.34,0-.69.01-1.04.01-5.38,0-9.99-1.15-13.69-2.08-.71-.18-1.44-.36-2.1-.51-1.23.7-3.47,2.18-7.09,5.2-4.76,3.97-10.16,9.13-15.37,14.12-9.83,9.4-19.14,18.3-28.16,23.45-2.12,1.34-4.13,2.51-6.07,3.64-.87.51-1.7.98-2.49,1.46l-.08.05-.08.05c-2.96,1.72-6.03,3.75-9.29,5.89-9.74,6.4-20.78,13.65-34.28,16.66l-.29.07-.29.06c-7.1,1.36-14.38,3.15-19.54,6.94l-.07.05-.07.05c-2.27,1.64-4.96,3.52-8.25,5.14-2.98,1.48-5.8,2.41-8.17,3.12l-.18.05-.18.05c-3.05.86-7.03,3.21-11.25,5.71-3.8,2.25-8.11,4.8-12.82,6.91h0c-1.32.59-2.66,1.14-4.04,1.63-7.79,10.19-15.07,21.02-21.75,32.34h-.13c-2.49,4.23-4.9,8.55-7.23,12.93h-.03l223.38,174.93,223.38-174.93h-.02Z"/>
      <g>
        <path class="cls-2" d="M396.92,218.31c.11-1.42-.06-2.88-.57-4.11-1.18-2.84-3.94-3.98-6.17-4.97-2.36-1.04-4.72-2.46-7.15-3.18-2.39-.72-4.39-2.55-6.49-4.11-4.76-3.52-9.59-7.09-14.94-9.1-4.17-1.57-8.65-3.32-12.44-5.99-1.7-1.2-3.48-1.11-5.41-1.57-1.01-.24-2.01-.55-2.99-.93-1.25-.48-2.47-1.07-3.64-1.76-.93-.55-1.85-1.17-2.86-1.43-1.01-.27-2.16-.13-3.02.7-1.16,1.14-1.45,3.32-.98,5.01.99,3.53,4.42,4.96,6.22,7.74.84,1.29,1.48,2.93,2.51,3.94,1.16,1.1,2.72.94,4.11,1.32,1.18.29,2.26.91,3.34,1.34,1.31.55,2.59,1.12,3.64,2.3.81.87,1.5,2.01,2.35,2.85,1.77,1.84,4.04,2.81,5.97,4.38.81.65,1.58,1.37,2.33,2.12,1.68,1.66,3.33,3.46,5.27,4.63,1.27.79,2.74,1.1,4.08,1.71,1.38.59,2.69,1.4,4.08,1.95,1.18.49,2.54.6,3.86,1.2,2.17.94,3.98,2.83,5.69,4.63.71.73,1.5,1.56,2.44,1.65,1.4.11,2.59-1,4.25-1.69.52-.23,1.05-.43,1.57-.68,2.82-1.31,4.66-4.11,4.95-7.96Z"/>
        <path class="cls-2" d="M373.91,247.86c-.75.3-1.52.77-2.3.61-.98-.22-1.79-1.11-2.66-1.71-2.45-1.38-4.23-3.07-6.13-5.33-1.24-1.37-3.22-2.02-3.7-4.17-.79-3.2,2.22-7.27,4.7-8.87,3.08-2.03,1.66-3.28-.74-4.47-2.64-1.34-5.88-2.26-8.39-3.92-2.86-2.6-4.42-1.74-7.35-2.88-1.92-1.25-3.73-4.15-6.09-3.27-3.62,1.72-1.6,8.45-7.44,8.6-6.75-1.39-5.87-4.2-9.38-7.7-1.56-1.72-3.78-3.69-4.19-6.56-.42-2.17.18-5.24,2.35-3.91,1.48.76,3.35,2.6,5.14,2.35,2.88-.34,4.21-5.3,1.66-7.46-2.09-2.55-9.85-7.7-7.89-10.51.79-.88,2.85-.73,2.91-2.46-.46-3.38-4.42-3.9-6.23-5.77-2-3.28-4.24-1.58-6.84-3.04-2.31-1.44-3.51-5.4-2.26-8.38.77-2.04,2.9-3.48,3.23-5.73v-.04c.35-7.75-14.29-17.02-18.62-22.66-2.31-2.1-18.54-22.37-17.84-11.69.95,3.2,1.61,6.7,2.41,9.9,1.19,3.54,4.12,11.33-1.62,8.89-2.24-1.24-3.3-4.72-5.61-6.27-5.68-3.41-4.22-6.03-5.11-12.77-.63-3.77-2.08-6.75-4.9-7.68-4.68-1.04-19.24-2.78-14.47,7.78.9,2.28,2.89,4.36,3.38,6.75.42,3-2.16,2.59-3.61,1.08-1.39-1.32-2.56-3.41-3.6-4.97-4.6-6.93-26.26-23.51-24.16-5.93.69,3.52,3.54,5.73,5.13,8.85,1.15,2.32,1.66,5.02,2.87,7.28,1.44,2.47,3.35,5.11,4,8.3,1.63,6.33,1.01,13.35.98,19.55.52,5.58-.29,8.24-2.18,13.11-.64,1.34-1.79,8.27-3.32,6.59-3.11-5.58,5.69-25.81-.58-31.84-.82-.51-1.36.36-1.29,1.44.77,5.2-.21,7.66-4.36,9.91-2.42,1.46-6.88,2.56-4.9-1.73,2.57-4.25,4.51-4.8,4.75-10.91,1.01-3.01,3.4-5.7,1.74-9.2-.77-2.18-1.94-4.26-2.63-6.51-1.02-3.55-1.15-7.48-4.45-7.75-5.62-.55-3.26,6.68-7.06,7.46-2.36.25-5.74-1.23-7.78.05-2.03,1.41-1.49,4.97-2.25,7.4-.58,2.28-1.74,4.28-2.26,6.47-1.12,3.47,1.12,5.59,1.62,8.44.07,1.61-.95,3.24-1.42,4.75-2.45,6.98-.05,19.13,5.66,22.8,4.88.64,6.86-8.01,9.56-11.97,1.74-2.64,4.52-3.25,6.94-4.46,1.27-.62,2.9-1.34,3.9-1.27,2.54.24-.2,4.45-.65,5.94-1.01,2.31-1.95,4.8-2.97,7.13-3.41,7.14-2.18,11.13,4.34,11.35,2.11.12,4.69-.16,6.36,1.45,3.58,4.58-5.08,10.03,5.62,12.18,4.12.91,3.21,9.02,8.63,8.3,2.33-1.16-3.03-7.39,1.87-7.18,2.08.52,3.07,3.33,4.84,4.61,1.25,1,2.79,1.49,3.76,2.99.95,1.38,1.3,3.32,2.09,4.84,2,3.81,6.71,3.17,10.27.15,4.96-3.92,5.95-11.51,1.83-16.93-1.08-1.62-2.51-2.89-3.55-4.33-.72-.97-1.57-2.27-2.37-2.84-2.24-1.24-4.5-1.74-5.48-5.13-1.17-2.83-.31-6.43-1.6-9.17-1.58-3.3-5.91-3.37-6.58-7.64-.41-2.04,0-4.56-.29-6.47-.67-5.67-5.38,1.8-4.84-4.04.98-5.86.87-12.34-1.13-17.73-.51-1.51-1.22-3.26-1.01-4.85.26-2.2,2.19-4.08,3.7-4.42,1.61-.31,2.14,1.95,2.76,3.45.72,2.49,2.9,4.31,3.86,6.38,1.04,3.14-2.75,4.11-.06,7.46,3.61,4.24.11,7.76,3.28,9.82,1.81,1.22,4.38.35,6,2.05.68.87.21,2.2-.36,2.98-1.99,2.49-5.93,2.96-2.96,7.33,1.2,1.84,2.71,3.39,3.71,5.43,1.15,2.23,1.86,4.88,3.24,6.92,1.23,1.98,3.15,2.89,4.55,4.48,1.63,1.84,2.6,4.62,4.33,6.28,1.54,1.73,3.88,1.02,5.55,1.67,2.02,1.11,2.96,4.17,4.84,5.58,2.04,1.76,4.77,1.12,6.18,3.57.51.74.86,1.84,1.59,2.21,3.03-.16,3.95-5.91,5.27-8.56,3.93-5.96-1.03-8.79-4.65-11.54-2.22-1.7-3.76-4.57-5.97-6.35-2.12-1.86-4.61-2.75-7.05-3.65-1.52-.34-4.84-3.44-1.61-3.79,2.34.33,5.2.2,7.66.22,6.69,1.04,10.02,10.14,15.9,13.26,9.46,6.49-5.93,9.6,6.97,14.69,4.16,1.75,6.35,8.08,9.83,10.62,2.32,1.78,5.51,8.59,7.36,11.6,1.06,2.11-.05,5.45.64,7.84,1.6,6,6.1,5.47,9.87,7.1,1.68.89,3.05,2.93,4.57,4.32,3.94,3.95,6.7.31,11.51,4.07,2.38,1.45,3.82,5.31,6.58,5.15,5.81-2.08,16.83-4.39,19.08-9.79.69-2.27-.9-4.65-2.63-3.53Z"/>
        <path class="cls-2" d="M178.14,185.24c-4.42-.17-7.62-5.45-11.36-5.16-1.34.14-2.79,1.48-2.62,3.36.05.91.33,1.77.44,2.66.36,2.56-1.2,5-2.76,6.59-4.29,3.68-6.32-5.79-10.64-5.83h-.04c-1.41-.1-2.96.66-3.62,2.25-.64,1.49-.38,3.53-1.05,5.4-1.01,2.72-3.02,4.27-4.64,6.43-3.65,4.77-5.77,4.13-10.3,2.57-3.65-1.18-6.2.95-9.28,3.22-2.64,2.02-6.15,3.31-6.1,7.8-.05,1.2-.04,2.46-.2,3.65-.25,2.14-1.23,4.11-1.1,6.33.28,5.34,4.76,6.71,7.77,8.88,1.88,1.36,3.42,3.19,5.31,2.11,2.47-1.45,4.28-7.09,7.38-8,1.12-.38,2.32-.04,3.44.05,1.72.22,2.57-.87,2.31-3.03-.21-2.1-1.33-4.53-1.11-6.63.12-1.91,1.37-2.75,2.74-2.46.38.06.77.17,1.17.29,4.18,1.84,8.81-1.87,13.32-3.89,2.1-.89,4.1-2.16,5.73-4.1,1.49-1.82,3.31-3.14,4.93-4.96,2.31-2.61,3.44-4.28,6.63-4.98,1.73-.47,3.44-1.17,5.09-1.06.96.04,1.92.37,2.87.41,1.11.11,2.02-.74,2.45-2.02.76-2.19.9-6.44-.23-8.39-1.39-2.07-4.38-1.14-6.54-1.48Z"/>
        <path class="cls-2" d="M436.63,250.6c-.41-4.5-5.01-9.22-7.1-12.9-.95-1.51-1.79-3.17-3-4.35-1.38-1.41-3.25-1.79-4.86-2.68-1.74-.94-2.83-2.61-4.83-3.49-5.86-2.53-17.42-.31-20.15,3.07-.52.64-.62,1.48-.79,2.32-.12.57-.31,1.15-.59,1.77-.56,1.41-1.76,2.99-2.07,4.32-.4,1.98,1.35,2.83,2.57,3.34,4.71,2.04,9.95,5.24,13.02,10.57.75,1.25,1.47,2.63,2.33,3.74,2.7,3.74,5.95,1.9,9.4.41,3.04-1.26,6.2-1.79,9.94-2.19,1.39-.15,2.99-.32,4.28-.94l.04-.02c1.22-.6,1.87-1.61,1.82-2.96Z"/>
        <path class="cls-2" d="M114.49,202.28c-3.25.63-7.32-.5-8.73,3.42-.55,1.35-.84,2.93-1.41,4.27-.35.82-.79,1.43-1.35,1.72-.97.53-2.19.16-3.23-.14-6.34-2.41-12.41,5.31-19.58,5.8-1.14.11-2.26.19-3.41.47h-.05c-1.42.34-2.87.99-4.23,1.68-7.78,3.8-12.99,5.5-4.44,5.83,1.69.06,3.4,0,5.11.21,1.13.1,2.28.27,3.38-.05.64-.18,1.22-.57,1.81-.93,1.74-1.12,4.04-1.93,6.05-1.29,1.57.44,3.16,1.65,4.71,1.9,1.11.21,2.2-.08,3.29-.41,5.07-1.75,11.42-.74,15.7-3.67,2.12-1.37,2.46-4.67,3.19-7.38.56-1.93,1.52-3.58,2.49-5.19.84-1.41,2.27-3.68,2.49-5.06.23-1.27-1-1.29-1.77-1.2Z"/>
        <path class="cls-2" d="M238.7,224.07c-.52-.91-.78-1.99-1.11-3.03-.55-1.83-1.35-2.9-2.8-4.13-3.06-2.6-11.35-6.89-14.55-3.64-.61.72-.85,1.73-1.05,2.76v.05c-.45,2.9-1.53,5.91-3.78,7.43-3.26,2.31-8,1.09-9.99,1.72-1.44.46-.61,1.31.6,1.71,11.17,2.32,25.55,12.67,34.27,2.88.56-.75.89-1.37.81-2.21-.31-1.56-1.69-2.14-2.4-3.54Z"/>
      </g>
      <text class="cls-5" transform="translate(161.17 329.16) scale(1.16 1)"><tspan x="0" y="0">RRP</tspan></text>
    </g>
  </g>
</svg>